<svg version="1.1" xmlns="http://www.w3.org/2000/svg">
<symbol viewBox="0 0 2336 1824" id="crok">
<path d="M0 0 C1.83 -0.05 3.67 0.01 5.5 0.09 C5.5 0.75 5.5 1.41 5.5 2.09 C3.57 2.89 3.57 2.89 0.83 3.68 C-0.7 4.14 -0.7 4.14 -2.27 4.6 C-3.4 4.93 -4.52 5.25 -5.69 5.59 C-39.21 15.6 -72.12 27.86 -104.5 41.09 C-105.88 41.65 -107.26 42.22 -108.65 42.78 C-112.4 44.3 -116.14 45.83 -119.89 47.36 C-121.35 47.96 -122.81 48.56 -124.27 49.15 C-137.46 54.53 -150.32 60.45 -163.03 66.87 C-168.29 69.52 -173.61 72.05 -178.93 74.58 C-187.44 78.62 -195.83 82.63 -203.87 87.54 C-206.76 89.25 -209.72 90.7 -212.75 92.15 C-255.57 113.26 -295.85 141.89 -333.5 171.09 C-334.12 171.57 -334.75 172.05 -335.39 172.55 C-343.96 179.18 -352.28 186.04 -360.5 193.09 C-361.71 194.13 -362.93 195.17 -364.14 196.2 C-379.87 209.29 -379.87 209.29 -394.67 223.36 C-396.5 225.09 -396.5 225.09 -398.5 225.09 C-398.5 225.75 -398.5 226.41 -398.5 227.09 C-399.88 228.45 -399.88 228.45 -401.84 230.06 C-407.19 234.61 -412.11 239.55 -417.06 244.53 C-417.97 245.43 -418.88 246.33 -419.81 247.26 C-424.34 251.8 -428.74 256.39 -432.91 261.26 C-435.48 264.22 -438.18 267.05 -440.87 269.9 C-445.58 274.93 -450.03 280.08 -454.33 285.46 C-456.59 288.2 -458.96 290.8 -461.37 293.4 C-466.1 298.54 -470.39 303.92 -474.66 309.43 C-476.54 311.88 -478.46 314.29 -480.41 316.68 C-487.56 325.49 -494.27 334.55 -500.85 343.79 C-502.49 346.07 -504.13 348.34 -505.79 350.6 C-512.8 360.2 -519.5 369.95 -526.03 379.88 C-527.46 382.03 -528.9 384.17 -530.35 386.31 C-549.94 415.22 -567.52 445.6 -584.5 476.09 C-585.13 477.23 -585.77 478.37 -586.42 479.54 C-594.91 494.76 -603.19 510.06 -611.18 525.55 C-612.75 528.58 -614.35 531.61 -615.95 534.63 C-630.26 561.67 -644.03 588.98 -657.69 616.35 C-659.94 620.85 -662.19 625.34 -664.44 629.84 C-676.51 653.9 -676.51 653.9 -688.19 678.15 C-691.91 686.06 -696 693.77 -700.11 701.48 C-702.81 706.57 -705.47 711.67 -708.12 716.78 C-708.68 717.84 -709.23 718.9 -709.8 719.99 C-714.12 728.32 -718.35 736.68 -722.5 745.09 C-722.83 745.75 -723.16 746.41 -723.5 747.09 C-721.89 746.47 -720.31 745.74 -718.75 745 C-713.06 742.33 -707.31 739.93 -701.47 737.61 C-700.45 737.21 -699.43 736.8 -698.39 736.38 C-695.11 735.07 -691.84 733.77 -688.56 732.47 C-686.29 731.56 -684.02 730.65 -681.75 729.75 C-669.18 724.73 -656.6 719.75 -644 714.82 C-622.96 706.58 -602.03 698.1 -581.1 689.62 C-568.97 684.7 -556.84 679.81 -544.69 674.97 C-532.92 670.27 -521.17 665.54 -509.44 660.78 C-508.68 660.47 -507.93 660.17 -507.16 659.85 C-503.26 658.27 -499.37 656.69 -495.48 655.11 C-487.33 651.8 -479.19 648.5 -471.04 645.2 C-469.26 644.47 -467.47 643.75 -465.69 643.03 C-456.61 639.34 -447.51 635.67 -438.39 632.09 C-437.62 631.79 -436.86 631.48 -436.07 631.17 C-430.73 629.09 -430.73 629.09 -428.5 629.09 C-428.48 626.34 -428.48 626.34 -428.89 622.9 C-428.99 621.93 -428.99 621.93 -429.08 620.94 C-429.3 618.8 -429.52 616.66 -429.75 614.53 C-429.9 613.06 -430.04 611.59 -430.19 610.11 C-430.48 607.16 -430.78 604.2 -431.08 601.24 C-431.64 595.74 -432.14 590.23 -432.62 584.72 C-432.7 583.89 -432.77 583.07 -432.85 582.23 C-434.43 564.34 -434.74 546.48 -434.75 528.53 C-434.75 526.63 -434.75 526.63 -434.75 524.7 C-434.73 504.97 -434.14 485.66 -431.5 466.09 C-431.33 464.81 -431.17 463.52 -431 462.2 C-425.91 423.5 -416.71 385.05 -400.55 349.4 C-399.37 346.8 -398.22 344.17 -397.07 341.55 C-392.41 331.02 -387.46 320.95 -381.5 311.09 C-380.86 309.99 -380.22 308.89 -379.57 307.75 C-364.81 282.37 -347.5 259.28 -327.77 237.6 C-326.33 236.01 -324.89 234.41 -323.46 232.8 C-317.98 226.63 -312.28 220.72 -306.44 214.9 C-305.59 214.05 -304.74 213.2 -303.87 212.33 C-298.91 207.37 -293.82 202.66 -288.5 198.09 C-286.87 196.62 -285.25 195.14 -283.62 193.65 C-278.74 189.25 -273.68 185.14 -268.5 181.09 C-267.12 180 -265.74 178.92 -264.36 177.83 C-255.24 170.67 -246.02 163.71 -236.5 157.09 C-235.91 156.68 -235.32 156.27 -234.72 155.84 C-209.02 137.85 -182.48 120.94 -154.87 106.03 C-153.76 105.43 -152.64 104.82 -151.5 104.2 C-143.76 100.09 -143.76 100.09 -141.5 100.09 C-142.75 103.55 -144.98 105.79 -147.5 108.4 C-188.96 153.91 -199.33 226.06 -204.19 285.09 C-204.25 285.83 -204.31 286.57 -204.37 287.34 C-206.09 308.53 -206.71 329.7 -206.69 350.97 C-206.69 352.14 -206.69 353.32 -206.69 354.53 C-206.66 375.17 -206.04 395.68 -204.68 416.27 C-204.48 419.32 -204.3 422.37 -204.11 425.42 C-202.36 453.79 -199.98 481.99 -196.43 510.19 C-196.3 511.21 -196.17 512.23 -196.04 513.28 C-195.8 515.17 -195.56 517.06 -195.31 518.95 C-194.83 522.76 -194.45 526.38 -194.59 530.22 C-194.56 531.17 -194.53 532.11 -194.5 533.09 C-191.82 532.88 -190.26 532.32 -187.81 531.28 C-187.06 530.98 -186.31 530.69 -185.53 530.39 C-182.84 529.32 -180.17 528.21 -177.5 527.09 C-175.43 526.24 -173.36 525.4 -171.28 524.56 C-166.45 522.57 -161.62 520.57 -156.8 518.55 C-148.58 515.11 -140.33 511.73 -132.09 508.35 C-129.61 507.33 -127.13 506.32 -124.64 505.3 C-117.12 502.21 -109.59 499.13 -102.06 496.05 C-85.32 489.19 -68.58 482.31 -51.87 475.34 C-51.13 475.03 -50.39 474.72 -49.63 474.41 C-43.18 471.71 -36.72 469.02 -30.26 466.32 C-26.91 464.92 -23.55 463.52 -20.19 462.12 C-18.38 461.37 -16.57 460.61 -14.77 459.86 C-2.06 454.58 -2.06 454.58 3.5 453.09 C1.01 456.03 -1.72 458 -5.03 459.9 C-5.92 460.41 -6.8 460.93 -7.71 461.45 C-9.12 462.26 -9.12 462.26 -10.56 463.09 C-17.77 467.28 -24.91 471.54 -31.94 476.03 C-38.94 480.5 -46.01 484.85 -53.12 489.15 C-60.55 493.65 -67.89 498.23 -75.16 502.98 C-83.27 508.28 -91.54 513.34 -99.79 518.42 C-104.3 521.2 -108.81 523.99 -113.31 526.78 C-114.19 527.32 -115.07 527.86 -115.97 528.42 C-121.22 531.67 -126.46 534.94 -131.69 538.22 C-137.91 542.12 -144.17 545.96 -150.45 549.78 C-156.21 553.3 -161.95 556.84 -167.69 560.4 C-175.14 565.03 -182.62 569.6 -190.12 574.15 C-197.02 578.34 -203.88 582.57 -210.69 586.9 C-221.96 594.07 -233.4 600.96 -244.82 607.87 C-265.55 620.4 -286.21 633.02 -306.74 645.88 C-314.76 650.9 -322.79 655.91 -330.93 660.75 C-336.16 663.87 -341.33 667.07 -346.5 670.28 C-353.94 674.9 -361.39 679.48 -368.87 684.03 C-370.3 684.9 -370.3 684.9 -371.76 685.78 C-376.64 688.75 -381.52 691.71 -386.4 694.66 C-396.02 700.5 -405.6 706.38 -415.09 712.41 C-424.02 718.08 -433.03 723.59 -442.04 729.12 C-447.93 732.74 -453.81 736.38 -459.69 740.03 C-466.65 744.35 -473.64 748.61 -480.69 752.8 C-485.75 755.83 -490.77 758.94 -495.79 762.04 C-498.47 763.69 -501.15 765.34 -503.82 766.99 C-504.86 767.62 -505.9 768.26 -506.97 768.92 C-516.28 774.66 -525.6 780.38 -534.94 786.07 C-540.7 789.59 -546.45 793.15 -552.19 796.72 C-558.76 800.79 -565.34 804.82 -571.98 808.79 C-584.1 816.03 -596.11 823.46 -608.11 830.9 C-623.36 840.35 -638.64 849.75 -653.96 859.09 C-659.55 862.5 -665.12 865.95 -670.69 869.4 C-680.94 875.76 -691.24 882.04 -701.55 888.3 C-706.58 891.35 -711.6 894.41 -716.62 897.47 C-717.6 898.06 -718.57 898.65 -719.58 899.26 C-725.39 902.8 -731.18 906.35 -736.97 909.92 C-740.81 912.29 -744.67 914.63 -748.52 916.97 C-765.46 927.26 -782.3 937.67 -799.04 948.27 C-802.43 950.42 -805.83 952.55 -809.24 954.67 C-826.59 965.46 -843.77 976.5 -860.69 987.97 C-861.33 988.4 -861.96 988.83 -862.62 989.27 C-875.34 997.89 -887.88 1006.73 -900.06 1016.09 C-900.95 1016.77 -901.85 1017.46 -902.77 1018.16 C-905.35 1020.13 -907.92 1022.11 -910.5 1024.09 C-911.21 1024.63 -911.91 1025.18 -912.64 1025.74 C-915.43 1027.88 -918.22 1030.02 -921 1032.17 C-921.83 1032.81 -922.65 1033.44 -923.5 1034.09 C-924.23 1034.67 -924.96 1035.25 -925.71 1035.85 C-927.5 1037.09 -927.5 1037.09 -929.5 1037.09 C-929.5 1037.75 -929.5 1038.41 -929.5 1039.09 C-931.16 1040.61 -931.16 1040.61 -933.56 1042.47 C-934.48 1043.18 -935.4 1043.9 -936.34 1044.63 C-937.38 1045.44 -938.43 1046.26 -939.5 1047.09 C-941.24 1048.48 -942.97 1049.88 -944.7 1051.28 C-958.93 1062.75 -973.48 1073.69 -988.5 1084.09 C-989.24 1084.61 -989.98 1085.12 -990.74 1085.65 C-1028.71 1112.09 -1028.71 1112.09 -1045.12 1119.9 C-1049.94 1122.26 -1054.6 1124.81 -1059.25 1127.47 C-1075.75 1136.84 -1092.96 1144.57 -1110.48 1151.83 C-1113.23 1152.98 -1115.96 1154.14 -1118.7 1155.31 C-1178.65 1180.47 -1245.74 1194.2 -1310.82 1194.26 C-1312.25 1194.26 -1313.69 1194.27 -1315.12 1194.27 C-1318.11 1194.27 -1321.1 1194.28 -1324.09 1194.28 C-1327.09 1194.28 -1330.09 1194.28 -1333.08 1194.3 C-1360.6 1194.42 -1387.77 1193.08 -1415.06 1189.4 C-1416.51 1189.21 -1416.51 1189.21 -1418 1189.01 C-1492.6 1179.06 -1566.82 1156.06 -1632.03 1118.07 C-1634.9 1116.43 -1637.78 1114.86 -1640.69 1113.3 C-1646.57 1110.1 -1652.23 1106.62 -1657.87 1103.03 C-1658.83 1102.43 -1659.79 1101.83 -1660.78 1101.21 C-1661.7 1100.63 -1662.63 1100.04 -1663.59 1099.43 C-1664.41 1098.91 -1665.24 1098.39 -1666.09 1097.85 C-1671.35 1094.01 -1671.35 1094.01 -1673.5 1091.09 C-1671.77 1088.67 -1670.39 1087.36 -1668.09 1085.55 C-1666.84 1084.49 -1665.59 1083.42 -1664.34 1082.35 C-1663.7 1081.81 -1663.05 1081.27 -1662.38 1080.71 C-1659.56 1078.29 -1656.95 1075.68 -1654.33 1073.03 C-1653.82 1072.53 -1653.31 1072.02 -1652.79 1071.49 C-1651.2 1069.91 -1649.62 1068.31 -1648.03 1066.72 C-1646.9 1065.58 -1645.76 1064.45 -1644.62 1063.31 C-1641.68 1060.36 -1638.74 1057.41 -1635.79 1054.45 C-1632.79 1051.44 -1629.79 1048.44 -1626.79 1045.43 C-1621.52 1040.15 -1616.25 1034.87 -1610.99 1029.59 C-1604.19 1022.77 -1604.19 1022.77 -1601.4 1020.03 C-1597.26 1015.95 -1597.26 1015.95 -1593.5 1011.53 C-1591.75 1009.4 -1590.1 1007.84 -1588.01 1006.07 C-1582.86 1001.6 -1578.06 996.8 -1573.25 991.97 C-1572.37 991.09 -1571.48 990.2 -1570.57 989.3 C-1569.72 988.44 -1568.86 987.59 -1567.98 986.71 C-1567.22 985.94 -1566.45 985.17 -1565.66 984.38 C-1563.45 982.1 -1563.45 982.1 -1561.45 979.5 C-1559.7 977.34 -1558.01 975.67 -1555.88 973.9 C-1550.79 969.55 -1546.1 964.83 -1541.37 960.09 C-1540.51 959.23 -1539.64 958.36 -1538.75 957.47 C-1535.02 953.74 -1531.37 950.02 -1528.01 945.97 C-1527.18 945.02 -1526.35 944.07 -1525.5 943.09 C-1524.84 943.09 -1524.18 943.09 -1523.5 943.09 C-1523.17 942.1 -1522.84 941.11 -1522.5 940.09 C-1520.19 937.34 -1520.19 937.34 -1517.5 935.09 C-1513.42 935.29 -1510.4 938.12 -1507.25 940.47 C-1505.98 941.38 -1504.71 942.3 -1503.44 943.22 C-1501.52 944.62 -1499.59 946.02 -1497.67 947.43 C-1452.43 980.36 -1393.9 999.02 -1337.99 999.29 C-1337.02 999.3 -1336.06 999.31 -1335.07 999.31 C-1331.98 999.33 -1328.9 999.34 -1325.81 999.34 C-1324.76 999.34 -1323.7 999.34 -1322.61 999.34 C-1307.33 999.33 -1292.57 998.86 -1277.5 996.09 C-1275.38 995.73 -1273.26 995.38 -1271.14 995.02 C-1248.8 991.13 -1227.46 984.7 -1206.5 976.09 C-1205.75 975.79 -1205 975.48 -1204.23 975.17 C-1183.78 966.74 -1164.58 955.78 -1146.5 943.09 C-1145.28 942.25 -1144.06 941.41 -1142.84 940.57 C-1134.36 934.69 -1126.34 928.28 -1118.41 921.68 C-1116.66 920.22 -1114.89 918.78 -1113.11 917.33 C-1099.17 905.84 -1086.24 892.81 -1074.5 879.09 C-1073.21 877.65 -1071.92 876.21 -1070.62 874.78 C-1066.09 869.68 -1061.77 864.41 -1057.5 859.09 C-1057.09 858.58 -1056.68 858.07 -1056.25 857.54 C-1045.03 843.53 -1034.31 829.13 -1024.5 814.09 C-1023.08 811.96 -1021.66 809.84 -1020.24 807.72 C-1018.15 804.6 -1016.07 801.48 -1014 798.35 C-1013.05 796.92 -1012.1 795.49 -1011.14 794.06 C-1002.69 781.35 -994.98 768.2 -987.25 755.05 C-985.2 751.58 -983.1 748.15 -981 744.72 C-974.89 734.56 -969.3 724.1 -963.6 713.72 C-960.1 707.34 -956.55 701 -953 694.65 C-952.42 693.62 -951.84 692.58 -951.24 691.51 C-948.59 686.79 -945.94 682.08 -943.21 677.4 C-940.23 672.25 -937.43 667.05 -934.8 661.72 C-930.63 653.32 -926.36 644.98 -922.06 636.65 C-921.31 635.19 -920.56 633.73 -919.8 632.27 C-916.06 625.02 -912.3 617.78 -908.44 610.59 C-905.23 604.61 -902.29 598.52 -899.43 592.37 C-894.95 582.72 -890.15 573.25 -885.23 563.82 C-879.31 552.47 -873.48 541.12 -868.05 529.53 C-864.92 522.88 -861.55 516.38 -858.1 509.89 C-855.57 505.13 -853.09 500.35 -850.69 495.53 C-850.37 494.9 -850.06 494.27 -849.74 493.63 C-848.18 490.49 -846.63 487.36 -845.08 484.22 C-838.06 470.01 -830.85 455.95 -823.16 442.09 C-821.34 438.81 -819.55 435.51 -817.75 432.22 C-805.46 409.69 -792.56 387.56 -778.69 365.96 C-777.67 364.36 -776.67 362.76 -775.66 361.15 C-760.54 336.96 -743.46 313.77 -725.51 291.6 C-723.97 289.68 -722.46 287.75 -720.96 285.8 C-715.29 278.45 -709.4 271.5 -703.04 264.75 C-701.91 263.54 -700.8 262.3 -699.71 261.06 C-693.1 253.57 -686.08 246.52 -679.02 239.48 C-676.93 237.4 -674.86 235.32 -672.78 233.24 C-671.44 231.89 -670.09 230.55 -668.75 229.2 C-668.14 228.59 -667.53 227.98 -666.9 227.35 C-663.14 223.61 -659.26 220.06 -655.25 216.6 C-653.02 214.68 -650.86 212.7 -648.69 210.72 C-644.39 206.84 -639.97 203.17 -635.48 199.54 C-632.75 197.29 -630.07 195.01 -627.4 192.69 C-618.09 184.62 -608.49 177.04 -598.32 170.05 C-596.12 168.52 -593.94 166.98 -591.77 165.41 C-581.26 157.88 -570.5 150.88 -559.5 144.09 C-558.46 143.44 -557.42 142.8 -556.35 142.13 C-540.65 132.4 -524.78 123.21 -508.42 114.62 C-505.71 113.2 -503.01 111.76 -500.32 110.32 C-482.17 100.61 -463.56 92.27 -444.56 84.37 C-442.57 83.54 -440.58 82.7 -438.59 81.86 C-413.31 71.23 -387.5 62.09 -361.39 53.7 C-359.68 53.15 -357.96 52.59 -356.25 52.04 C-338.23 46.23 -319.88 41.61 -301.5 37.09 C-300.74 36.9 -299.97 36.71 -299.19 36.52 C-213.28 15.43 -124.82 4.45 -14.17 0.42 C-13.1 0.39 -12.04 0.35 -10.95 0.32 C-7.3 0.21 -3.65 0.13 0 0 Z " fill="currentColor" transform="translate(2130.4993591308594,297.9095153808594)"/>
<path d="M0 0 C0.66 0.33 1.32 0.66 2 1 C0.55 2.97 -0.94 4.74 -2.56 6.56 C-3.59 7.75 -4.62 8.93 -5.65 10.12 C-6.2 10.75 -6.74 11.38 -7.31 12.03 C-14.46 20.35 -21.36 28.91 -27.72 37.85 C-30.21 41.3 -32.77 44.69 -35.34 48.08 C-41.54 56.28 -47.56 64.56 -53.32 73.07 C-55.67 76.54 -58.09 79.95 -60.53 83.35 C-66.29 91.42 -71.65 99.67 -76.84 108.12 C-78.65 111.04 -80.51 113.93 -82.38 116.81 C-104.58 151.27 -125.49 186.41 -144 223 C-144.41 223.81 -144.82 224.63 -145.25 225.47 C-146.87 228.68 -148.48 231.9 -150.08 235.13 C-151.32 237.63 -152.57 240.13 -153.82 242.62 C-184.08 302.77 -210.24 365.58 -229 430.3 C-230.28 434.66 -231.62 438.98 -233 443.31 C-238.54 460.72 -243.32 478.23 -247.69 495.97 C-248.36 498.68 -249.04 501.38 -249.72 504.09 C-255.6 527.53 -261 551.1 -264.71 575 C-265.14 577.6 -265.14 577.6 -266 581 C-268.02 578.11 -268.26 575.5 -268.31 572.05 C-268.34 570.58 -268.34 570.58 -268.38 569.08 C-268.4 568.02 -268.42 566.96 -268.44 565.88 C-269.27 537.73 -272.41 508.69 -284.44 482.94 C-284.8 482.16 -285.16 481.39 -285.53 480.59 C-289.05 473.34 -292.97 466.5 -300.25 462.56 C-301.1 462.09 -301.95 461.62 -302.83 461.13 C-309.21 457.81 -316.2 457.99 -323.14 459.84 C-330.61 462.75 -336.75 467.05 -343 472 C-343.8 472.62 -344.6 473.23 -345.42 473.87 C-351 478.25 -356.37 482.86 -361.74 487.5 C-365.42 490.67 -369.15 493.76 -372.94 496.81 C-376.78 499.92 -380.3 503.16 -383.66 506.79 C-385 508 -385 508 -387 508 C-387 508.66 -387 509.32 -387 510 C-388.36 511.34 -388.36 511.34 -390.31 512.94 C-394.4 516.4 -398.16 520.12 -401.92 523.94 C-405.21 527.27 -408.65 530.34 -412.21 533.36 C-414.66 535.61 -416.72 538.11 -418.77 540.71 C-419.18 541.14 -419.58 541.56 -420 542 C-420.66 542 -421.32 542 -422 542 C-422 542.66 -422 543.32 -422 544 C-422.66 544 -423.32 544 -424 544 C-424 544.66 -424 545.32 -424 546 C-424.66 546 -425.32 546 -426 546 C-426.33 546.66 -426.66 547.32 -427 548 C-427.33 548.66 -427.66 549.32 -428 550 C-428.66 550 -429.32 550 -430 550 C-430.33 550.66 -430.66 551.32 -431 552 C-431.33 552.66 -431.66 553.32 -432 554 C-432.66 554 -433.32 554 -434 554 C-434.3 554.6 -434.6 555.19 -434.9 555.8 C-436.14 558.28 -437.42 559.41 -439.56 561.12 C-442.21 563.21 -442.21 563.21 -444 566 C-444.66 566 -445.32 566 -446 566 C-446.67 567.33 -447.34 568.66 -448 570 C-449.28 571.46 -450.62 572.88 -452 574.25 C-452.7 574.96 -453.4 575.66 -454.12 576.39 C-456 578 -456 578 -458 578 C-458.33 578.99 -458.66 579.98 -459 581 C-460.44 582.69 -460.44 582.69 -462 584 C-462.66 584 -463.32 584 -464 584 C-464.25 584.55 -464.51 585.1 -464.77 585.67 C-466.47 588.89 -469.04 590.95 -471.75 593.31 C-475.27 596.45 -478.63 599.53 -481.62 603.19 C-482.41 604.12 -483.19 605.04 -484 606 C-484.66 606 -485.32 606 -486 606 C-486 606.66 -486 607.32 -486 608 C-487.61 609.55 -487.61 609.55 -489.75 611.31 C-492.1 613.31 -494.07 615.09 -496 617.5 C-497.69 619.61 -499.14 621.02 -501.19 622.72 C-507.38 628.09 -513.06 633.97 -518.82 639.78 C-520.96 641.94 -523.11 644.09 -525.25 646.24 C-531.35 652.36 -537.43 658.49 -543.52 664.61 C-547.25 668.37 -550.99 672.13 -554.73 675.88 C-556.15 677.31 -557.58 678.74 -559 680.18 C-560.97 682.17 -562.95 684.16 -564.93 686.14 C-565.52 686.74 -566.11 687.34 -566.72 687.95 C-570.77 692 -570.77 692 -573 692 C-573 692.66 -573 693.32 -573 694 C-573.66 694 -574.32 694 -575 694 C-575.67 695.33 -576.34 696.66 -577 698 C-578.28 699.46 -579.62 700.88 -581 702.25 C-581.7 702.96 -582.4 703.66 -583.12 704.39 C-585 706 -585 706 -587 706 C-587 706.66 -587 707.32 -587 708 C-588.65 709.35 -590.32 710.69 -592 712 C-592.33 712.66 -592.66 713.32 -593 714 C-593.66 714 -594.32 714 -595 714 C-595 714.66 -595 715.32 -595 716 C-596.47 717.45 -596.47 717.45 -598.51 719.14 C-602.84 722.82 -606.86 726.73 -610.87 730.77 C-611.61 731.51 -612.35 732.25 -613.11 733.02 C-614.71 734.62 -616.3 736.22 -617.89 737.82 C-620.42 740.35 -622.94 742.89 -625.47 745.42 C-630.84 750.8 -636.2 756.18 -641.56 761.56 C-647.78 767.81 -654 774.05 -660.23 780.29 C-662.71 782.77 -665.19 785.27 -667.67 787.76 C-669.2 789.29 -670.73 790.83 -672.26 792.36 C-673.29 793.39 -673.29 793.39 -674.33 794.44 C-677.94 798.05 -681.63 801.49 -685.55 804.75 C-687.38 806.33 -688.91 808.06 -690.44 809.94 C-693.38 813.41 -696.56 816.34 -700.02 819.28 C-703.18 822.02 -706.07 825.01 -709 828 C-710.67 829.67 -712.33 831.33 -714 833 C-716.17 835.18 -718.34 837.36 -720.5 839.53 C-726.91 845.97 -733.32 852.41 -739.73 858.84 C-743.61 862.72 -747.48 866.61 -751.35 870.5 C-755.1 874.27 -758.86 878.04 -762.61 881.8 C-764.05 883.24 -765.48 884.68 -766.9 886.12 C-768.89 888.12 -770.89 890.12 -772.89 892.11 C-773.48 892.71 -774.07 893.31 -774.68 893.93 C-778.77 898 -778.77 898 -781 898 C-781.68 899.33 -782.34 900.66 -783 902 C-784.66 903.89 -784.66 903.89 -786.62 905.81 C-787.26 906.44 -787.89 907.06 -788.54 907.71 C-790.55 909.58 -792.59 911.38 -794.67 913.17 C-798.84 916.81 -802.77 920.64 -806.67 924.57 C-807.39 925.29 -808.11 926.01 -808.85 926.75 C-810.4 928.31 -811.94 929.86 -813.49 931.42 C-815.94 933.88 -818.4 936.35 -820.86 938.81 C-826.08 944.04 -831.29 949.27 -836.5 954.5 C-842.54 960.57 -848.59 966.63 -854.64 972.69 C-857.05 975.11 -859.46 977.53 -861.86 979.95 C-863.35 981.45 -864.84 982.94 -866.33 984.43 C-866.99 985.1 -867.65 985.76 -868.33 986.45 C-872.18 990.29 -876.13 993.93 -880.28 997.44 C-882.23 999.14 -882.23 999.14 -884.5 1002 C-886.47 1004.36 -888.2 1006.11 -890.52 1008.06 C-895.64 1012.48 -900.37 1017.26 -905.12 1022.06 C-906.08 1023.02 -907.04 1023.98 -907.99 1024.94 C-911 1027.96 -914 1030.98 -917 1034 C-920.48 1037.51 -923.97 1041.01 -927.46 1044.51 C-928.84 1045.9 -930.21 1047.29 -931.59 1048.68 C-936.05 1053.16 -940.56 1057.48 -945.41 1061.53 C-947.24 1063.11 -947.24 1063.11 -949 1066 C-949.66 1066 -950.32 1066 -951 1066 C-951 1066.66 -951 1067.32 -951 1068 C-952.57 1069.55 -952.57 1069.55 -954.69 1071.31 C-957.96 1074.06 -960.99 1076.97 -964 1080 C-964.98 1080.99 -964.98 1080.99 -965.98 1081.99 C-967.52 1083.55 -969.07 1085.11 -970.61 1086.67 C-974.19 1090.27 -977.77 1093.87 -981.36 1097.47 C-983.25 1099.37 -985.14 1101.28 -987.03 1103.18 C-989.76 1105.94 -992.5 1108.68 -995.23 1111.43 C-996.08 1112.29 -996.93 1113.14 -997.8 1114.03 C-998.98 1115.21 -998.98 1115.21 -1000.18 1116.41 C-1000.87 1117.1 -1001.56 1117.8 -1002.27 1118.52 C-1004 1120 -1004 1120 -1006 1120 C-1006.26 1120.54 -1006.51 1121.08 -1006.77 1121.64 C-1008.48 1124.92 -1011 1127.26 -1013.6 1129.83 C-1014.16 1130.39 -1014.71 1130.94 -1015.28 1131.51 C-1016.46 1132.69 -1017.64 1133.86 -1018.82 1135.03 C-1020.6 1136.79 -1022.38 1138.56 -1024.15 1140.34 C-1025.3 1141.48 -1026.45 1142.63 -1027.6 1143.77 C-1028.38 1144.55 -1028.38 1144.55 -1029.18 1145.35 C-1031.9 1148.03 -1034.68 1150.6 -1037.59 1153.08 C-1043.04 1157.81 -1048.08 1162.96 -1053.16 1168.08 C-1055.01 1169.94 -1056.86 1171.8 -1058.71 1173.66 C-1062.64 1177.6 -1066.57 1181.55 -1070.5 1185.5 C-1075.06 1190.08 -1079.62 1194.66 -1084.18 1199.23 C-1085.99 1201.05 -1087.8 1202.87 -1089.61 1204.7 C-1098.72 1213.85 -1098.72 1213.85 -1103 1217.5 C-1108.35 1222.06 -1113.22 1227.12 -1118.16 1232.11 C-1119.99 1233.97 -1121.84 1235.82 -1123.68 1237.67 C-1128.91 1242.93 -1134.14 1248.19 -1139.36 1253.46 C-1142.57 1256.69 -1145.78 1259.92 -1149 1263.15 C-1150.22 1264.38 -1151.44 1265.61 -1152.66 1266.84 C-1154.36 1268.56 -1156.06 1270.26 -1157.76 1271.97 C-1158.26 1272.48 -1158.77 1273 -1159.29 1273.52 C-1162.77 1277 -1162.77 1277 -1165 1277 C-1165.37 1277.79 -1165.37 1277.79 -1165.74 1278.6 C-1167.59 1282.13 -1170.33 1284.59 -1173.14 1287.38 C-1173.75 1287.98 -1174.36 1288.59 -1174.98 1289.21 C-1176.27 1290.49 -1177.55 1291.77 -1178.84 1293.04 C-1180.8 1294.99 -1182.75 1296.94 -1184.71 1298.89 C-1185.96 1300.14 -1187.21 1301.38 -1188.46 1302.62 C-1189.04 1303.2 -1189.62 1303.78 -1190.22 1304.38 C-1193.34 1307.47 -1196.53 1310.29 -1200 1313 C-1201.04 1314.11 -1202.04 1315.26 -1203 1316.44 C-1205.52 1319.46 -1208.18 1322.25 -1211 1325 C-1211.89 1325.95 -1212.77 1326.9 -1213.69 1327.88 C-1214.45 1328.58 -1215.21 1329.28 -1216 1330 C-1216.66 1329.67 -1217.32 1329.34 -1218 1329 C-1217.02 1327.24 -1217.02 1327.24 -1215.25 1324.88 C-1212.17 1320.65 -1209.24 1316.37 -1206.38 1312 C-1201.99 1305.36 -1197.37 1298.92 -1192.69 1292.5 C-1188.94 1287.33 -1185.35 1282.1 -1181.85 1276.76 C-1179.21 1272.82 -1176.39 1269 -1173.57 1265.18 C-1171.98 1263.1 -1171.98 1263.1 -1171 1261 C-1170.34 1261 -1169.68 1261 -1169 1261 C-1168.66 1259.67 -1168.33 1258.34 -1168 1257 C-1166.76 1255.02 -1166.76 1255.02 -1165.19 1252.95 C-1164.61 1252.17 -1164.04 1251.4 -1163.44 1250.6 C-1162.51 1249.38 -1162.51 1249.38 -1161.56 1248.12 C-1160.28 1246.41 -1159 1244.7 -1157.72 1242.98 C-1156.77 1241.71 -1156.77 1241.71 -1155.8 1240.42 C-1153.35 1237.12 -1150.94 1233.79 -1148.56 1230.44 C-1147.95 1229.58 -1147.95 1229.58 -1147.33 1228.71 C-1145.09 1225.56 -1142.88 1222.38 -1140.69 1219.19 C-1136.89 1213.73 -1132.81 1208.5 -1128.76 1203.23 C-1125.38 1198.84 -1122.13 1194.4 -1118.99 1189.84 C-1112.17 1180.11 -1105.04 1170.57 -1097.75 1161.19 C-1091.91 1153.65 -1086.29 1145.93 -1081 1138 C-1080.34 1138 -1079.68 1138 -1079 1138 C-1078.57 1136.92 -1078.57 1136.92 -1078.12 1135.81 C-1076.84 1132.6 -1075.2 1130.68 -1073 1128 C-1072.03 1126.75 -1071.07 1125.5 -1070.12 1124.25 C-1069.59 1123.57 -1069.07 1122.88 -1068.53 1122.18 C-1067.99 1121.46 -1067.44 1120.74 -1066.88 1120 C-1063.24 1115.23 -1059.59 1110.47 -1055.92 1105.72 C-1051.75 1100.33 -1047.68 1094.87 -1043.69 1089.34 C-1042.59 1087.82 -1041.45 1086.32 -1040.27 1084.86 C-1038.73 1083 -1038.73 1083 -1039.12 1080.31 C-1039.41 1079.55 -1039.7 1078.79 -1040 1078 C-1040.99 1077.67 -1041.98 1077.34 -1043 1077 C-1043 1076.34 -1043 1075.68 -1043 1075 C-1043.66 1075 -1044.32 1075 -1045 1075 C-1046.48 1073.5 -1046.48 1073.5 -1048.19 1071.44 C-1050.53 1068.67 -1052.91 1066.03 -1055.5 1063.5 C-1060.03 1059.05 -1064.19 1054.29 -1068.12 1049.31 C-1070.26 1046.68 -1072.61 1044.39 -1075 1042 C-1080.42 1036.28 -1085.81 1030.57 -1090.43 1024.17 C-1092.48 1021.34 -1094.61 1018.58 -1096.75 1015.81 C-1097.39 1014.98 -1097.39 1014.98 -1098.04 1014.13 C-1100.2 1011.32 -1102.37 1008.52 -1104.55 1005.73 C-1115.42 991.79 -1124.82 977.09 -1134 962 C-1134.44 961.28 -1134.88 960.57 -1135.33 959.83 C-1178.86 888.77 -1206.75 804.89 -1220 666 C-1220.02 664.85 -1220.04 663.7 -1220.06 662.52 C-1220.6 627.83 -1218.51 593.39 -1214 559 C-1213.91 558.33 -1213.83 557.65 -1213.73 556.95 C-1209.49 524.37 -1202.02 492.28 -1192 461 C-1191.66 459.91 -1191.31 458.82 -1190.95 457.69 C-1174.21 404.98 -1150.3 354.64 -1119 309 C-1118.34 308.03 -1117.69 307.06 -1117.01 306.06 C-1106.55 290.76 -1095.46 276.05 -1083.55 261.85 C-1081.34 259.21 -1079.17 256.54 -1077 253.88 C-1072.19 248 -1067.38 242.36 -1062 237 C-1061.06 236.05 -1060.11 235.1 -1059.17 234.16 C-1056.44 231.4 -1053.7 228.65 -1050.95 225.9 C-1049.78 224.72 -1048.61 223.54 -1047.44 222.36 C-1035.82 210.66 -1035.82 210.66 -1029.68 205.44 C-1027.09 203.22 -1024.62 200.89 -1022.12 198.56 C-1016.94 193.78 -1011.58 189.32 -1006 185 C-1004.63 183.93 -1003.27 182.85 -1001.9 181.78 C-997.29 178.16 -992.65 174.57 -988 171 C-987.39 170.53 -986.78 170.06 -986.15 169.58 C-933.38 129.34 -872.53 97.33 -809 78 C-808.33 77.8 -807.66 77.59 -806.97 77.38 C-766.28 64.93 -725.16 56.13 -682.81 51.69 C-682.04 51.61 -681.26 51.52 -680.46 51.44 C-662.46 49.58 -644.59 48.79 -626.5 48.81 C-625.52 48.81 -624.53 48.81 -623.52 48.82 C-537.43 48.99 -452.33 67.58 -322 130 C-320.68 130.78 -320.68 130.78 -319.34 131.57 C-313.53 135 -307.76 138.48 -302 142 C-301.23 142.47 -300.47 142.93 -299.68 143.41 C-297.49 144.75 -295.31 146.09 -293.12 147.44 C-292.17 148.02 -292.17 148.02 -291.2 148.62 C-289.44 149.71 -287.72 150.85 -286 152 C-285.36 152.4 -284.71 152.8 -284.05 153.22 C-282.24 154.47 -282.24 154.47 -280 157 C-281.6 159.19 -282.92 160.35 -285 162 C-285.96 163.01 -286.91 164.04 -287.83 165.09 C-292.78 170.55 -297.67 175.79 -303.34 180.53 C-305.25 182.15 -305.25 182.15 -307.5 185 C-309.5 187.39 -311.27 189.15 -313.62 191.12 C-317.16 194.13 -320.28 197.42 -323.38 200.88 C-327.56 205.55 -331.98 209.76 -336.71 213.9 C-340.11 217.02 -343.03 220.49 -346 224 C-348.31 226.5 -348.31 226.5 -350 228 C-350.66 228 -351.32 228 -352 228 C-352.68 229.33 -353.34 230.66 -354 232 C-355.57 233.7 -355.57 233.7 -357.42 235.4 C-358.11 236.04 -358.8 236.67 -359.51 237.33 C-360.25 238.01 -360.99 238.68 -361.75 239.38 C-363.29 240.81 -364.84 242.24 -366.38 243.68 C-367.54 244.76 -367.54 244.76 -368.73 245.86 C-372.1 249.04 -375.41 252.29 -378.69 255.56 C-379.24 256.11 -379.79 256.66 -380.36 257.22 C-383 259.87 -385.5 262.57 -387.89 265.46 C-390.6 268.67 -393.58 271.31 -396.76 274.02 C-401.27 278.01 -405.45 282.35 -409.69 286.62 C-411.07 288.02 -411.07 288.02 -412.49 289.44 C-414.2 291.16 -415.92 292.89 -417.63 294.62 C-419.22 296.22 -420.82 297.82 -422.42 299.41 C-424.78 301.78 -427.11 304.16 -429.43 306.56 C-431.7 308.89 -433.98 311.22 -436.27 313.54 C-437.47 314.77 -438.67 316 -439.86 317.24 C-441.6 319.03 -443.35 320.81 -445.1 322.59 C-445.9 323.42 -445.9 323.42 -446.71 324.28 C-448.24 325.81 -448.24 325.81 -451 328 C-454.02 327.96 -456.02 326.52 -458.48 324.85 C-459.47 324.19 -459.47 324.19 -460.48 323.51 C-461.19 323.03 -461.9 322.55 -462.62 322.06 C-477.01 312.59 -491.91 304.75 -507.74 297.97 C-509.7 297.13 -511.64 296.26 -513.58 295.39 C-582.57 265.63 -667.85 269.14 -736.83 296.36 C-746.81 300.43 -756.49 304.95 -766 310 C-766.69 310.36 -767.39 310.72 -768.11 311.1 C-780.81 317.72 -792.45 325.54 -804 334 C-804.64 334.47 -805.29 334.94 -805.95 335.42 C-815.08 342.13 -823.53 349.49 -831.51 357.52 C-834.05 360.05 -836.69 362.43 -839.38 364.81 C-843.96 368.97 -848.04 373.25 -852 378 C-852.79 378.9 -853.57 379.79 -854.38 380.72 C-866.17 394.25 -876.66 408.77 -885.88 424.16 C-886.93 425.88 -888 427.58 -889.09 429.27 C-924.89 486.38 -941.79 554.44 -947 621 C-947.14 622.63 -947.14 622.63 -947.29 624.29 C-948.18 635.06 -948.24 645.82 -948.25 656.62 C-948.25 657.63 -948.25 658.64 -948.25 659.68 C-948.21 700.75 -943.3 741.23 -933 781 C-932.58 782.64 -932.58 782.64 -932.15 784.32 C-926.18 807.35 -918.29 829.55 -908 851 C-907.55 851.95 -907.1 852.91 -906.63 853.89 C-901.37 864.89 -895.86 875.71 -889.5 886.12 C-889.01 886.96 -888.52 887.79 -888.01 888.64 C-887.31 889.75 -887.31 889.75 -886.59 890.88 C-885.99 891.86 -885.99 891.86 -885.37 892.86 C-884.91 893.24 -884.46 893.61 -884 894 C-879.67 892.63 -877.24 889.07 -874.44 885.69 C-873.91 885.06 -873.39 884.44 -872.84 883.79 C-871.75 882.5 -870.67 881.2 -869.58 879.9 C-867.24 877.08 -864.87 874.29 -862.5 871.5 C-861.6 870.43 -860.69 869.36 -859.79 868.29 C-846.48 852.56 -846.48 852.56 -839.81 845.31 C-836.66 841.88 -833.66 838.39 -830.75 834.75 C-825.87 828.7 -820.56 823.1 -815.23 817.45 C-812.29 814.32 -809.44 811.14 -806.64 807.89 C-804.62 805.56 -802.56 803.28 -800.5 801 C-797.67 797.87 -794.85 794.73 -792.06 791.56 C-791.52 790.95 -790.97 790.33 -790.41 789.69 C-788.82 787.84 -788.82 787.84 -787 785 C-786.34 785 -785.68 785 -785 785 C-784.32 783.67 -783.65 782.34 -783 781 C-781.52 779.36 -781.52 779.36 -779.81 777.75 C-777.36 775.37 -775.04 772.96 -772.81 770.38 C-769.66 766.72 -766.41 763.17 -763.12 759.62 C-759.6 755.82 -756.08 752 -752.62 748.12 C-748.17 743.15 -743.6 738.28 -739.03 733.4 C-735.44 729.57 -731.93 725.67 -728.5 721.69 C-726.36 719.28 -724.05 717.04 -721.75 714.78 C-719.92 712.92 -718.21 710.98 -716.5 709 C-714.25 706.39 -711.95 703.91 -709.5 701.5 C-704.89 696.96 -700.64 692.13 -696.69 687 C-696.13 686.34 -695.57 685.68 -695 685 C-694.34 685 -693.68 685 -693 685 C-692.3 683.68 -691.64 682.35 -691 681 C-689.73 679.42 -689.73 679.42 -688.27 677.89 C-687.72 677.31 -687.17 676.73 -686.61 676.13 C-686.02 675.51 -685.42 674.89 -684.81 674.25 C-683.54 672.9 -682.26 671.55 -680.98 670.2 C-680.33 669.5 -679.67 668.81 -678.99 668.1 C-675.83 664.77 -672.7 661.41 -669.56 658.06 C-665.69 653.93 -661.81 649.8 -657.93 645.68 C-657.26 644.97 -656.59 644.26 -655.9 643.53 C-654.64 642.18 -653.37 640.83 -652.1 639.49 C-648.68 635.85 -645.4 632.15 -642.26 628.27 C-641.85 627.85 -641.43 627.43 -641 627 C-640.34 627 -639.68 627 -639 627 C-639 626.34 -639 625.68 -639 625 C-638.34 625 -637.68 625 -637 625 C-636.6 624.17 -636.6 624.17 -636.2 623.33 C-634.58 620.19 -632.35 618.2 -629.81 615.75 C-626.67 612.68 -623.58 609.62 -620.75 606.25 C-617.22 602.11 -613.36 598.33 -609.5 594.5 C-605.13 590.18 -600.89 585.85 -596.93 581.15 C-593.53 577.37 -589.87 573.83 -586.24 570.27 C-583.22 567.3 -580.33 564.27 -577.56 561.06 C-573.29 556.11 -568.63 551.58 -563.96 547 C-560.02 543.1 -556.3 539.1 -552.68 534.91 C-549.59 531.41 -546.23 528.19 -542.89 524.93 C-540.11 522.19 -537.47 519.41 -534.94 516.44 C-528.93 509.48 -522.21 503.16 -515.68 496.7 C-513.9 494.94 -512.12 493.17 -510.34 491.41 C-509.81 490.88 -509.28 490.36 -508.73 489.82 C-505.98 487.09 -503.37 484.3 -500.86 481.36 C-496.38 476.18 -491.51 471.4 -486.66 466.58 C-484.93 464.87 -483.21 463.15 -481.48 461.43 C-477.21 457.17 -472.92 452.91 -468.64 448.65 C-465.01 445.04 -461.38 441.43 -457.76 437.81 C-456.07 436.13 -454.38 434.46 -452.69 432.78 C-447.74 427.85 -442.87 422.9 -438.34 417.57 C-436.54 415.46 -434.64 413.47 -432.69 411.5 C-432.03 410.83 -431.38 410.16 -430.7 409.47 C-429 408 -429 408 -427 408 C-426.67 407.01 -426.34 406.02 -426 405 C-425.34 405 -424.68 405 -424 405 C-423.67 404.01 -423.34 403.02 -423 402 C-422.34 402 -421.68 402 -421 402 C-421 401.34 -421 400.68 -421 400 C-420.34 400 -419.68 400 -419 400 C-418.6 399.18 -418.6 399.18 -418.2 398.34 C-416.6 395.23 -414.3 393.01 -411.84 390.58 C-411.34 390.07 -410.84 389.57 -410.32 389.05 C-409.26 387.99 -408.2 386.93 -407.13 385.87 C-405.5 384.25 -403.88 382.62 -402.25 380.98 C-401.22 379.95 -400.19 378.92 -399.16 377.89 C-398.67 377.4 -398.18 376.91 -397.68 376.4 C-394.23 373 -394.23 373 -392 373 C-391.67 372.01 -391.34 371.02 -391 370 C-390.34 370 -389.68 370 -389 370 C-389 369.34 -389 368.68 -389 368 C-388.34 368 -387.68 368 -387 368 C-386.74 367.45 -386.48 366.9 -386.21 366.34 C-384.58 363.19 -382.21 360.99 -379.69 358.56 C-379.21 358.1 -378.74 357.63 -378.25 357.15 C-376.84 355.77 -375.42 354.38 -374 353 C-372.66 351.65 -372.66 351.65 -371.3 350.27 C-369 348 -369 348 -366.5 346.06 C-363.84 344 -363.84 344 -361.5 341 C-359.16 338.2 -356.83 336.26 -354 334 C-353.08 332.93 -352.19 331.85 -351.31 330.75 C-350.55 329.84 -349.79 328.93 -349 328 C-348.34 328 -347.68 328 -347 328 C-346.75 327.46 -346.51 326.91 -346.25 326.35 C-344.48 323.02 -341.78 320.85 -339 318.38 C-330.1 310.27 -321.65 301.71 -313.19 293.15 C-308.3 288.22 -303.41 283.4 -298.12 278.9 C-293.03 274.34 -288.3 269.36 -283.5 264.5 C-271.4 252.25 -271.4 252.25 -267.03 248.53 C-261.01 243.4 -255.56 237.63 -250 232 C-237.02 218.87 -237.02 218.87 -230.76 213.54 C-227.68 210.85 -224.85 207.92 -222 205 C-218.48 201.4 -214.94 197.91 -211.12 194.62 C-206.51 190.65 -202.27 186.34 -198 182 C-193.06 176.98 -188.09 172.11 -182.75 167.52 C-180.56 165.61 -178.52 163.58 -176.5 161.5 C-173.14 158.09 -169.66 154.93 -166.03 151.81 C-162.96 149.07 -160.11 146.12 -157.22 143.19 C-154.57 140.58 -151.79 138.17 -148.96 135.75 C-146.18 133.28 -143.61 130.62 -141 127.97 C-138.44 125.45 -135.73 123.12 -133 120.78 C-130.29 118.37 -127.77 115.8 -125.25 113.19 C-123.3 111.29 -121.31 109.51 -119.26 107.73 C-115.01 104.03 -110.9 100.19 -106.81 96.31 C-99.59 89.49 -92.33 82.71 -85 76 C-84.51 75.55 -84.02 75.1 -83.51 74.63 C-79.01 70.52 -74.5 66.41 -69.88 62.44 C-66.96 59.91 -64.22 57.25 -61.5 54.5 C-57.49 50.45 -53.34 46.69 -49 43 C-39.91 35.24 -30.87 27.45 -22.11 19.32 C-16.28 13.92 -10.38 8.74 -4.18 3.78 C-1.97 2.03 -1.97 2.03 0 0 Z " fill="currentColor" transform="translate(1418,249)"/>
<path d="M0 0 C0.72 1.85 0.72 1.85 1.22 4.49 C1.42 5.48 1.61 6.47 1.81 7.49 C2.01 8.59 2.21 9.68 2.42 10.81 C2.74 12.5 2.74 12.5 3.08 14.23 C3.79 17.97 4.49 21.7 5.19 25.44 C5.68 28.03 6.18 30.63 6.68 33.22 C8.33 41.8 9.95 50.39 11.56 58.97 C20.08 104.3 30.02 149.38 42.11 193.89 C43.53 199.14 44.85 204.4 46.15 209.67 C49.32 222.54 52.83 235.28 56.56 248 C56.86 249.02 57.16 250.05 57.47 251.1 C63.09 270.3 69.13 289.35 75.45 308.33 C76.72 312.13 77.96 315.94 79.2 319.75 C86.28 341.57 94.09 363.07 102.19 384.53 C104.08 389.53 105.93 394.54 107.77 399.56 C110.7 407.58 113.77 415.51 117.12 423.38 C122.21 435.43 122.21 435.43 124.44 441.44 C128.09 451.14 132.47 460.55 136.68 470.02 C138.48 474.09 140.28 478.17 142.06 482.25 C142.59 483.45 143.12 484.65 143.66 485.89 C144.47 487.76 145.25 489.64 146 491.54 C147.19 494.47 148.52 497.32 149.88 500.19 C152.22 505.18 154.55 510.19 156.85 515.2 C157.36 516.31 157.87 517.42 158.39 518.56 C159.39 520.74 160.39 522.93 161.38 525.11 C166.38 535.99 171.78 546.65 177.21 557.32 C178.62 560.1 180.03 562.88 181.44 565.66 C182.16 567.08 182.88 568.49 183.6 569.91 C184.67 571.99 185.73 574.08 186.78 576.17 C187.11 576.8 187.43 577.43 187.77 578.08 C189.43 581.41 190 583.18 190 587 C186.69 587.23 183.73 587.17 180.44 586.94 C179.42 586.88 178.4 586.82 177.35 586.76 C173.9 586.54 170.45 586.27 167 586 C165.77 585.9 164.55 585.81 163.29 585.71 C121.45 582.25 81.99 574.17 42.81 559.12 C41.67 558.69 41.67 558.69 40.5 558.24 C30.3 554.34 20.48 549.97 10.79 544.93 C8.93 543.97 7.07 543.02 5.21 542.08 C-11.41 533.6 -27.02 523.09 -42 512 C-43 511.28 -44 510.55 -45.02 509.81 C-52.49 504.33 -59.5 498.4 -66.47 492.3 C-67.91 491.08 -69.41 489.92 -70.91 488.77 C-71.6 488.19 -72.29 487.6 -73 487 C-73 486.34 -73 485.68 -73 485 C-73.55 484.73 -74.1 484.47 -74.67 484.19 C-77.79 482.59 -79.84 480.42 -82.32 477.94 C-82.83 477.44 -83.34 476.93 -83.86 476.41 C-84.93 475.35 -86 474.27 -87.06 473.2 C-88.66 471.59 -90.26 470 -91.87 468.4 C-97.66 462.63 -103.06 456.73 -108.14 450.32 C-109.8 448.25 -111.52 446.27 -113.31 444.31 C-128.87 426.62 -142.34 406.29 -153.93 385.84 C-155.58 382.99 -157.36 380.22 -159.12 377.44 C-163.1 370.99 -166.49 364.33 -169.78 357.52 C-171.17 354.65 -172.59 351.79 -174.01 348.93 C-190.59 315.26 -204.81 279.63 -214.17 243.22 C-215.09 239.65 -216.04 236.09 -216.98 232.53 C-221.08 217.08 -225.05 201.58 -228.19 185.91 C-228.79 183.02 -229.42 180.16 -230.1 177.29 C-231.09 173.04 -231.99 168.77 -232.84 164.49 C-233.2 162.8 -233.58 161.12 -233.99 159.45 C-236.58 148.8 -236.58 148.8 -235 144 C-231.43 139.62 -226.12 137.34 -221.09 135 C-218.24 133.64 -215.64 131.96 -213 130.23 C-202.19 123.46 -191.35 116.75 -180.44 110.13 C-171.46 104.68 -162.52 99.15 -153.59 93.61 C-149.23 90.9 -144.87 88.2 -140.5 85.5 C-138.75 84.41 -136.99 83.33 -135.24 82.24 C-131.78 80.1 -128.32 77.96 -124.86 75.82 C-114.34 69.32 -103.86 62.79 -93.38 56.23 C-87.45 52.53 -81.51 48.84 -75.54 45.19 C-70.61 42.15 -65.72 39.07 -60.81 36 C-51.04 29.88 -41.24 23.83 -31.41 17.81 C-26.33 14.69 -21.26 11.55 -16.24 8.32 C-15.36 7.76 -14.48 7.2 -13.58 6.62 C-11.95 5.57 -10.32 4.51 -8.7 3.45 C-7.98 2.99 -7.27 2.54 -6.54 2.06 C-5.92 1.66 -5.31 1.26 -4.67 0.85 C-3 0 -3 0 0 0 Z " fill="currentColor" transform="translate(1948,906)"/>
</symbol>
</svg>
